<!--suppress ALL -->
<svg width="70" height="70" viewBox="0 0 70 70" fill="none" xmlns="http://www.w3.org/2000/svg">

    <symbol id="buttonArrow" viewBox="0 0 22 20">
        <path d="M1 10H21" stroke="currentColor" stroke-width="2" stroke-linecap="round" stroke-linejoin="round"/>
        <path d="M12.25 1.25L21 10L12.25 18.75" stroke="currentColor" stroke-width="2" stroke-linecap="round" stroke-linejoin="round"/>
    </symbol>

    <symbol id="axios" viewBox="0 0 512 75">
        <path fill="#5a29e4" d="M254.114 9.182v60.165l-6.557 5.282v-50.05h-12.343zM481.537 0c5.492 0 10.59.828 15.297 2.484c4.528 1.564 8.433 3.323 11.717 5.275l.573.347l-6.799 12.943c-.62-.507-1.496-1.088-2.627-1.741l-.643-.364l-.693-.378l-.743-.393c-2.092-1.133-4.576-2.092-7.453-2.876a30.487 30.487 0 0 0-8.89-1.308c-8.193 0-12.29 2.31-12.29 6.93c0 2.701 1.482 4.619 4.445 5.752l.676.245l.717.249l.76.253l.804.256l.846.261l.888.265c.152.045.305.09.46.134l.953.27l.995.276l1.038.278l1.08.283l1.124.287l1.765.438l1.23.297c5.142 1.307 9.588 2.789 13.336 4.445c3.675 1.587 6.51 3.694 8.504 6.322l.255.346c2.092 2.702 3.138 6.275 3.138 10.72c0 5.404-1.395 9.762-4.184 13.075c-2.702 3.224-6.275 5.578-10.72 7.06c-4.446 1.394-9.24 2.091-14.382 2.091c-5.927 0-11.81-.828-17.65-2.484c-5.562-1.577-10.53-3.707-14.906-6.391l-.652-.407l7.06-13.728c1.133 1.133 3.007 2.397 5.622 3.791c2.702 1.395 5.84 2.572 9.413 3.53c3.574.96 7.365 1.439 11.375 1.439c8.018 0 12.028-2.136 12.028-6.407c0-2.876-1.874-4.924-5.622-6.144l-.901-.317l-.947-.321l-.991-.326l-1.037-.332l-1.082-.336l-1.127-.342l-.58-.172l-1.195-.349l-1.24-.354l-1.286-.359l-1.33-.364l-2.08-.555l-.716-.188c-7.496-1.917-13.074-4.358-16.735-7.321c-3.574-3.051-5.36-7.41-5.36-13.075c0-5.055 1.263-9.282 3.79-12.681c2.616-3.4 6.102-5.971 10.46-7.714C471.47.872 476.308 0 481.537 0M360.292.13c5.531 0 10.581 1.008 15.146 3.023l.545.246c4.707 2.092 8.716 4.925 12.028 8.498c3.4 3.487 6.012 7.453 7.842 11.898c1.83 4.445 2.748 8.977 2.748 13.597c0 4.794-.958 9.413-2.876 13.859c-1.917 4.358-4.622 8.28-8.109 11.766c-3.399 3.4-7.449 6.101-12.156 8.106c-4.706 2.005-9.849 3.007-15.427 3.007c-5.753 0-10.982-1.002-15.689-3.007c-4.707-2.092-8.762-4.88-12.162-8.367c-3.399-3.574-6.014-7.583-7.844-12.028c-1.828-4.446-2.746-9.022-2.746-13.728c0-4.794.96-9.414 2.877-13.859a36.412 36.412 0 0 1 7.638-11.3l.47-.467c3.487-3.486 7.58-6.232 12.287-8.236c4.707-2.005 9.85-3.007 15.428-3.007M44.844.524l31.77 73.084H59.88L52.558 56.48H24.187l-7.321 17.127H0L31.9.523zm93.58 0L158.56 26.41L178.693.523h17.127l-28.894 37l27.979 36.084h-17.127l-19.22-24.84l-19.087 24.84h-17.389l28.11-36.084l-29.025-37zM266.106.188v48.905h12.689L259.56 64.877V4.744zm93.928 14.063c-4.794 0-8.893 1.133-12.292 3.399c-3.313 2.266-5.84 5.142-7.583 8.629c-1.744 3.486-2.615 7.104-2.615 10.852c0 3.922.918 7.67 2.748 11.243c1.828 3.487 4.399 6.32 7.711 8.498c3.4 2.18 7.452 3.269 12.159 3.269c4.794 0 8.847-1.133 12.159-3.4c3.315-2.353 5.84-5.273 7.583-8.76c1.743-3.573 2.617-7.233 2.617-10.981c0-3.922-.915-7.627-2.745-11.113c-1.83-3.487-4.445-6.276-7.847-8.368c-3.313-2.179-7.276-3.268-11.895-3.268M38.438 19.74L27.717 42.753h21.05z"/>
    </symbol>

    <symbol id="css" viewBox="0 0 120 119">
        <path d="M22.13 101.15L13.71 7.43L106.29 7.43L97.85 101.13L59.94 111.56L22.13 101.15Z" fill="#1572B6" fill-opacity="1.000000" fill-rule="nonzero"/>
        <path d="M60 103.59L90.63 95.17L97.84 15.1L60 15.1L60 103.59Z" fill="#33A9DC" fill-opacity="1.000000" fill-rule="nonzero"/>
        <path d="M60 49.05L75.33 49.05L76.39 37.28L60 37.28L60 25.78L89.06 25.78L88.78 28.87L85.93 60.54L60 60.54L60 49.05Z" fill="#FFFFFF" fill-opacity="1.000000" fill-rule="nonzero"/>
        <path d="M60.07 78.9L60.01 78.91L47.11 75.46L46.28 66.29L34.65 66.29L36.27 84.34L60.01 90.87L60.07 90.86L60.07 78.9Z" fill="#EBEBEB" fill-opacity="1.000000" fill-rule="nonzero"/>
        <path d="M74.35 60.06L72.95 75.45L60.03 78.91L60.03 90.87L83.79 84.34L83.96 82.4L85.98 60.06L74.35 60.06Z" fill="#FFFFFF" fill-opacity="1.000000" fill-rule="nonzero"/>
        <path d="M60.04 25.78L60.04 37.28L32.04 37.28L31.81 34.69L31.28 28.87L31 25.78L60.04 25.78ZM60 49.05L60 60.54L47.25 60.54L47.02 57.96L46.49 52.13L46.21 49.05L60 49.05Z" fill="#EBEBEB" fill-opacity="1.000000" fill-rule="nonzero"/>
    </symbol>

    <symbol id="figma" viewBox="0 0 32 32">
        <path fill-rule="evenodd" clip-rule="evenodd" d="M16 16C16 13.7909 17.7909 12 20 12C22.2091 12 24 13.7909 24 16C24 18.2091 22.2091 20 20 20C17.7909 20 16 18.2091 16 16Z" fill="#1ABCFE"/>
        <path fill-rule="evenodd" clip-rule="evenodd" d="M8 24C8 21.7909 9.79086 20 12 20H16V24C16 26.2091 14.2091 28 12 28C9.79086 28 8 26.2091 8 24Z" fill="#0ACF83"/>
        <path fill-rule="evenodd" clip-rule="evenodd" d="M16 4V12H20C22.2091 12 24 10.2091 24 8C24 5.79086 22.2091 4 20 4H16Z" fill="#FF7262"/>
        <path fill-rule="evenodd" clip-rule="evenodd" d="M8 8C8 10.2091 9.79086 12 12 12H16V4H12C9.79086 4 8 5.79086 8 8Z" fill="#F24E1E"/>
        <path fill-rule="evenodd" clip-rule="evenodd" d="M8 16C8 18.2091 9.79086 20 12 20H16V12H12C9.79086 12 8 13.7909 8 16Z" fill="#A259FF"/>
    </symbol>

    <symbol id="formik" viewBox="0 0 34.7 34.7">
        <path d="m-.0001948.00485276h34.699667v34.699667h-34.699667z" fill="#0051cd" stroke-width=".1187196918"/>
        <g fill="#fff" transform="matrix(.400018502 0 0 .400018502 5.34987738 .55385626)">
            <path d="m38.869 0 9.694 5.5746-38.176 21.954-9.694-5.5747z"/>
            <path d="m48.954 6.7451-37.936 21.806-.0013 11.032 37.936-21.806z"/>
            <path d="m33.698 28.276-22.601 12.991-.0012 11.033 22.601-12.991z"/>
            <path d="m25.035 45.717-13.99 8.0421-.0013 11.033 13.991-8.0421z"/>
            <path d="m.0037583 23.017 9.751 5.6047-.00375 11.035-9.751-5.6046z"/>
            <path d="m.096543 35.657 9.6327 5.5367-.00376 11.035-9.6327-5.5366z"/>
            <path d="m.092298 48.221 9.6359 5.5386-.00401 11.763-9.6359-5.5386z"/>
            <path d="m21.564 84-9.694-5.5746 37.743-21.704 9.6939 5.5746z"/>
            <path d="m11.102 77.471 37.879-21.773.0012-11.032-37.879 21.773z"/>
            <path d="m26.3 55.974 22.601-12.991.0013-11.033-22.601 12.991z"/>
            <path d="m34.964 38.532 13.99-8.0421.0012-11.033-13.99 8.0421z"/>
            <path d="m59.996 61.306-9.7509-5.6046.0037-11.035 9.751 5.6046z"/>
            <path d="m59.904 48.595-9.6327-5.5367.0037-11.035 9.6327 5.5366z"/>
            <path d="m59.908 36.031-9.636-5.5386.0039-11.552 9.636 5.5385z"/>
        </g>
    </symbol>

    <symbol id="git" viewBox="0 0 105 104">
        <path id="Vector" d="M103.02 46.82L57.17 0.98C54.53 -1.66 50.25 -1.66 47.61 0.98L38.09 10.5L50.16
	 22.57C52.97 21.62 56.19 22.26 58.43 24.5C60.67 26.75 61.31 29.99 60.33 32.81L71.97 44.45C74.79
	  43.48 78.04 44.1 80.29 46.36C83.43 49.5 83.43 54.59 80.29 57.73C77.14 60.88 72.05 60.88 68.9
	   57.73C66.54 55.37 65.96 51.9 67.15 48.98L56.3 38.13L56.3 66.69C57.09 67.08 57.8 67.6 58.43
	    68.21C61.57 71.36 61.57 76.45 58.43 79.59C55.28 82.74 50.19 82.74 47.05 79.59C43.91 76.45
	     43.91 71.36 47.05 68.21C47.8 67.46 48.7 66.86 49.68 66.46L49.68 37.63C48.7 37.23 47.8 36.63
	      47.05 35.87C44.67 33.5 44.09 30 45.31 27.08L33.41 15.17L1.98 46.6C-0.67 49.25 -0.67 53.53
	       1.98 56.17L47.82 102.01C50.46 104.65 54.74 104.65 57.38 102.01L103.01 56.38C105.66 53.74
	        105.66 49.46 103.01 46.82L103.02 46.82Z" fill="#DE4C36" fill-opacity="1.000000" fill-rule="nonzero"/>
    </symbol>

    <symbol id="githubColored" viewBox="0 0 512 512">
        <path d="M255.969,21.733c-131.739,0-238.572,107.541-238.572,240.206      c0,106.107,68.362,196.121,163.205,227.91c11.929,2.22,16.285-5.196,16.285-11.567c0-5.713-0.205-20.817-0.33-40.856      c-66.36,14.507-80.375-32.208-80.375-32.208c-10.828-27.756-26.489-35.139-26.489-35.139      c-21.684-14.893,1.613-14.591,1.613-14.591c23.948,1.701,36.534,24.759,36.534,24.759      c21.295,36.694,55.866,26.105,69.465,19.947c2.146-15.521,8.318-26.105,15.154-32.116      c-52.974-6.073-108.69-26.681-108.69-118.699c0-26.229,9.31-47.668,24.576-64.478c-2.475-6.071-10.646-30.507,2.329-63.554      c0,0,20.045-6.455,65.613,24.614c19.031-5.325,39.432-7.982,59.742-8.072c20.25,0.123,40.676,2.747,59.738,8.105      c45.547-31.074,65.559-24.614,65.559-24.614c13.002,33.077,4.832,57.482,2.387,63.549c15.297,16.81,24.516,38.25,24.516,64.482      c0,92.258-55.773,112.563-108.92,118.512c8.559,7.422,16.191,22.069,16.191,44.471c0,32.124-0.297,58.019-0.297,65.888      c0,6.427,4.293,13.903,16.402,11.54c94.697-31.824,162.998-121.805,162.998-227.883      C494.604,129.273,387.771,21.733,255.969,21.733L255.969,21.733z M255.969,21.733"
              style="fill:#6879D9;"/>
    </symbol>

    <symbol id="githubWhite" viewBox="0 0 20 20">
        <rect id="akar-icons:github-fill" width="20.000000" height="20.000000" fill="currentColor" fill-opacity="0"/>
        <g clip-path="url(#clip1_157)">
            <path id="Vector" d="M10 0C4.47 0 0 4.47 0 10C0 14.42 2.86 18.16 6.83 19.48C7.33 19.57 7.52 19.27 7.52 19.01C7.52 18.77 7.51 17.98 7.51 17.14C5 17.61 4.35 16.53 4.14 15.97C4.03 15.68 3.54 14.8 3.12 14.56C2.77 14.37 2.27 13.91 3.11 13.89C3.89 13.88 4.46 14.62 4.64 14.92C5.54 16.43 6.98 16.01 7.56 15.75C7.64 15.1 7.91 14.66 8.2 14.41C5.97 14.16 3.64 13.3 3.64 9.47C3.64 8.38 4.03 7.48 4.67 6.78C4.57 6.53 4.22 5.51 4.77 4.13C4.77 4.13 5.61 3.87 7.52 5.16C8.32 4.93 9.17 4.82 10.02 4.82C10.87 4.82 11.72 4.93 12.52 5.16C14.43 3.86 15.27 4.13 15.27 4.13C15.82 5.51 15.47 6.53 15.37 6.78C16.01 7.48 16.4 8.37 16.4 9.47C16.4 13.31 14.06 14.16 11.83 14.41C12.2 14.72 12.51 15.32 12.51 16.26C12.51 17.6 12.5 18.67 12.5 19.01C12.5 19.27 12.68 19.58 13.18 19.48C15.17 18.81 16.89 17.54 18.11 15.83C19.34 14.13 19.99 12.09 20 10C20 4.47 15.52 0 10 0Z" fill="currentColor" fill-opacity="1.000000" fill-rule="evenodd"/>
        </g>
    </symbol>

    <symbol id="hook" viewBox="0 0 56 60">
        <g transform="translate(1 1)">
            <path id="Path"
                  d="m13.01 44h-10.01c-1.65685425 0-3-1.3431458-3-3v-34c0-1.65685425 1.34314575-3 3-3h15.914c.7022.001438 1.381647.24915304 1.92.7l5.166 4.3h25c1.6568542 0 3 1.3431458 3 3v29c0 1.6568542-1.3431458 3-3 3h-30.97"
                  fill="#ffdf00"></path>
            <path id="Path"
                  d="m23 9h3l-5.166-4.3c-.538353-.45084696-1.2178-.698562-1.92-.7h-3c.7022.001438 1.381647.24915304 1.92.7z"
                  fill="#fec108"></path>
            <path id="Path"
                  d="m51 9h-3c1.6568542 0 3 1.3431458 3 3v29c0 1.6568542-1.3431458 3-3 3h3c1.6568542 0 3-1.3431458 3-3v-29c0-1.6568542-1.3431458-3-3-3z"
                  fill="#fec108"></path>
            <path id="Path"
                  d="m37.5 0c1.9329966 0 3.5 1.56700338 3.5 3.5v5.5h-7v-5.5c0-1.93299662 1.5670034-3.5 3.5-3.5z"
                  fill="#9e9e9e"></path>
            <path id="Path"
                  d="m37.5 0c-.5199307.00261516-1.0326034.12223879-1.5.35 1.2189506.57576424 1.9974578 1.80191297 2 3.15v5.5h3v-5.5c0-1.93299662-1.5670034-3.5-3.5-3.5z"
                  fill="#707070"></path>
            <path id="Path"
                  d="m41 44c-.23 7.23-5.74 13.49-13.02 13.97-3.8715584.2638355-7.679254-1.0891214-10.5163307-3.7366807-2.8370767-2.6475592-4.449637-6.3527835-4.4536693-10.2333193v-18.064c.000272-.4205525.2636395-.7959949.658983-.9394104.3953435-.1434154.8381708-.0241535 1.108017.2984104l8.411 10.064c.2487798.2978918.3027264.7128276.1383884 1.0644295-.1643381.351602-.5172765.5763606-.9053884.5765705h-2.411v6.7c-.0029832.1004102.0037144.2008743.02.3.0738823 3.5651037 2.7598539 6.5324628 6.3 6.96 1.9659112.1947317 3.9225772-.4502985 5.3872793-1.7759587 1.4647021-1.3256601 2.3010529-3.2085099 2.3027207-5.1840413"
                  fill="#9e9e9e"></path>
            <g fill="#707070">
                <path id="Path"
                      d="m38 44c-.1405412 7.0882562-5.4510243 13.0045335-12.483 13.907.8175532.0933419 1.6417439.1144235 2.463.063 7.28-.48 12.79-6.74 13.02-13.97z"></path>
                <path id="Path"
                      d="m20.188 35.359c.2487798.2978918.3027264.7128276.1383884 1.0644295-.1643381.351602-.5172765.5763606-.9053884.5765705h-2.411v6.7c-.0029832.1004102.0037144.2008743.02.3.0738823 3.5651037 2.7598539 6.5324628 6.3 6.96.7356064.0726477 1.4780686.0287749 2.2-.13-3.1646883-.7744471-5.4182458-3.5729558-5.5-6.83-.0162856-.0991257-.0229832-.1995898-.02-.3v-6.7h2.411c.3881119-.0002099.7410503-.2249685.9053884-.5765705.164338-.3516019.1103914-.7665377-.1383884-1.0644295l-8.411-10.059c-.2698462-.3225639-.7126735-.4418258-1.108017-.2984104-.3953435.1434155-.658711.5188579-.658983.9394104v.834z"></path>
            </g>
        </g>
        <g fill="#000">
            <path id="Shape"
                  d="m4 46h9.062c.2573596 3.8005309 1.945362 7.3623446 4.724 9.968 2.7596397 2.5983655 6.4096135 4.0411786 10.2 4.032.351 0 .7-.012 1.06-.036 7.26-.479 13.178-6.531 13.877-13.968h9.077c2.209139 0 4-1.790861 4-4v-28.996c0-2.209139-1.790861-4-4-4h-9v-4.5c0-2.48528137-2.0147186-4.5-4.5-4.5s-4.5 2.01471863-4.5 4.5v4.5h-6.638l-4.887-4.073c-.7192868-.59847084-1.6252968-.92641747-2.561-.927h-15.914c-2.209139 0-4 1.790861-4 4v34c0 2.209139 1.790861 4 4 4zm24.912 11.973c-3.5953461.2602567-7.1353684-.9971203-9.761-3.467-2.6335419-2.4610626-4.1322714-5.9015173-4.141-9.506v-18.064l8.411 10.064h-2.411c-.5522847 0-1 .4477153-1 1v6.7c-.0022504.1337189.0054374.2674203.023.4.1052336 4.0478858 3.1766649 7.3995852 7.2 7.857 4.3125694.4322419 8.1820387-2.6559648 8.717-6.957h4.97c-.6066039 6.3574793-5.6487771 11.3849559-12.008 11.973zm-6.756-11.973h11.771c-.2235104 1.3263545-.8854889 2.5393949-1.88 3.445-1.253622 1.1435449-2.9364557 1.6963615-4.624 1.519-2.6610991-.3059816-4.8040713-2.3256729-5.267-4.964zm13.844-41.5c.0000001-1.38071183 1.1192882-2.49999989 2.5-2.49999989s2.4999999 1.11928806 2.5 2.49999989v4.5h-5zm-34 3.5c0-1.1045695.8954305-2 2-2h15.914c.4675586.00060372.9202501.16435069 1.28.463l3.044 2.537h-9.238c-.5522847 0-1 .44771525-1 1 0 .5522847.4477153 1 1 1h37c1.1045695 0 2 .8954305 2 2v29c0 1.1045695-.8954305 2-2 2h-29.99v-5h1.411c.7764046-.0000317 1.4826363-.4494029 1.8115647-1.1526882.3289284-.7032854.2211107-1.5333895-.2765647-2.1293118l-8.412-10.065c-.5398101-.645268-1.4257164-.8837408-2.2165037-.5966496-.7907872.2870911-1.3173726 1.0383614-1.3174963 1.8796496v17.064h-9.01c-1.1045695 0-2-.8954305-2-2z"
                  fill-rule="nonzero"></path>
            <path id="Path"
                  d="m47 42h4c.5522847 0 1-.4477153 1-1v-4c0-.5522847-.4477153-1-1-1s-1 .4477153-1 1v3h-3c-.5522847 0-1 .4477153-1 1s.4477153 1 1 1z"></path>
        </g>
    </symbol>

    <symbol id="html" viewBox="0 0 120 120" fill="none" clip-path="url(#clip1_76)">
        <path d="M22.13 102L13.7 7.5L106.29 7.5L97.85 101.98L59.94 112.5L22.13 102Z" fill="#E44F26" fill-opacity="1.000000" fill-rule="nonzero"/>
        <path d="M60 104.46L90.63 95.97L97.84 15.22L60 15.22L60 104.46Z" fill="#F1662A" fill-opacity="1.000000" fill-rule="nonzero"/>
        <path d="M60 50.27L44.66 50.27L43.6 38.4L60 38.4L60 26.81L30.93 26.81L31.21 29.92L34.06 61.86L60 61.86L60 50.27ZM60 80.37L59.94 80.39L47.04 76.9L46.21 67.66L34.57 67.66L36.2 85.86L59.94 92.45L60 92.43L60 80.37Z" fill="#EBEBEB" fill-opacity="1.000000" fill-rule="nonzero"/>
        <path d="M59.95 50.27L59.95 61.86L74.23 61.86L72.88 76.9L59.95 80.38L59.95 92.44L83.72 85.86L83.89 83.9L86.61 53.38L86.9 50.27L59.95 50.27ZM59.95 26.81L59.95 38.4L87.95 38.4L88.18 35.8L88.71 29.92L88.99 26.81L59.95 26.81Z" fill="#FFFFFF" fill-opacity="1.000000" fill-rule="nonzero"/>
    </symbol>

    <symbol id="instagram" viewBox="0 0 24 24">
        <path d="M3.06167 7.24464C3.10844 6.22264 3.26846 5.56351 3.48487 5.00402L3.48778 4.99629C3.70223 4.42695 4.03818 3.91119 4.47224 3.48489L4.47833 3.47891L4.48431 3.47282C4.91096 3.0382 5.42691 2.70258 5.99575 2.4887L6.00556 2.48495C6.56378 2.26786 7.22162 2.10843 8.24447 2.06167M3.06167 7.24464C3.0125 8.33659 2.99997 8.67508 2.99997 11.5063C2.99997 14.3381 3.01181 14.6758 3.06164 15.768M3.06167 7.24464L3.06167 7.52008M3.48867 18.0168C3.70255 18.5856 4.03817 19.1015 4.47279 19.5282L4.47887 19.5342L4.48484 19.5402C4.91116 19.9743 5.42694 20.3103 5.99628 20.5247L6.00478 20.5279C6.56351 20.7446 7.22167 20.9041 8.24447 20.9509M3.48867 18.0168L3.48492 18.0069C3.26783 17.4487 3.1084 16.7909 3.06164 15.768M3.48867 18.0168L3.47585 17.9492M3.06164 15.768L3.07839 15.8562M3.06164 15.768L3.06164 15.4919M3.47585 17.9492L3.07839 15.8562M3.47585 17.9492C3.30704 17.5033 3.13322 16.881 3.07839 15.8562M3.47585 17.9492C3.48177 17.9649 3.48768 17.9803 3.49359 17.9955C3.70766 18.5726 4.04685 19.0952 4.48679 19.5256C4.91708 19.9655 5.43944 20.3046 6.01636 20.5187C6.47934 20.699 7.13172 20.8875 8.24431 20.9385C9.3671 20.9896 9.71399 21 12.5062 21C15.2985 21 15.6457 20.9896 16.7685 20.9385C17.8824 20.8874 18.534 20.6979 18.9954 20.519C19.5726 20.305 20.0953 19.9657 20.5257 19.5256C20.9655 19.0953 21.3046 18.573 21.5187 17.9961C21.699 17.5331 21.8875 16.8808 21.9384 15.7682C21.9895 14.6454 22 14.2978 22 11.5063C22 8.71472 21.9895 8.36684 21.9384 7.24405C21.8871 6.12427 21.6959 5.47168 21.5161 5.00992C21.2811 4.40322 20.9831 3.94437 20.525 3.48627C20.0678 3.02999 19.6102 2.73179 19.003 2.49654C18.5396 2.31537 17.8866 2.12531 16.7685 2.07406C16.6712 2.06964 16.5798 2.06552 16.4921 2.06168M3.07839 15.8562C3.07684 15.8273 3.07539 15.7981 3.07403 15.7685C3.06961 15.6712 3.06548 15.5797 3.06164 15.4919M8.24447 2.06167C9.33668 2.01184 9.67505 2 12.5062 2C15.3374 2 15.6756 2.01252 16.7675 2.06168M8.24447 2.06167L8.52062 2.06167M16.7675 2.06168L16.4921 2.06168M16.7675 2.06168C17.7897 2.10844 18.4489 2.26844 19.0085 2.48487L19.0162 2.48781C19.5855 2.70226 20.1013 3.03821 20.5276 3.47227L20.5335 3.4783L20.5396 3.48422C20.9737 3.91055 21.3096 4.42646 21.5239 4.99596L21.5275 5.00559C21.7446 5.56381 21.9041 6.22165 21.9508 7.2445M8.52062 2.06167L16.4921 2.06168M8.52062 2.06167C9.44548 2.02123 9.95666 2.01253 12.5062 2.01253C15.056 2.01253 15.5671 2.02124 16.4921 2.06168M8.52062 2.06167C8.43284 2.06551 8.34134 2.06964 8.24402 2.07406C7.13004 2.12512 6.47843 2.31464 6.01708 2.49358C5.43767 2.70837 4.91328 3.04936 4.48192 3.49186C4.0281 3.94756 3.73105 4.40422 3.49655 5.0094C3.31536 5.4728 3.12527 6.12614 3.07402 7.24434C3.06961 7.34135 3.06549 7.43257 3.06167 7.52008M21.9508 15.768C21.9041 16.7908 21.7446 17.449 21.5279 18.0077L21.5247 18.0162C21.3102 18.5856 20.9743 19.1013 20.5402 19.5276L20.5341 19.5336L20.5282 19.5397C20.1015 19.9743 19.5856 20.3099 19.0167 20.5238L19.0069 20.5276C18.4487 20.7447 17.7908 20.9041 16.768 20.9509M3.06164 15.4919C3.0212 14.567 3.0125 14.0558 3.0125 11.5063C3.0125 8.95591 3.0212 8.44544 3.06167 7.52008M3.06164 15.4919L3.06167 7.52008M10.8155 15.5881C11.3515 15.8101 11.926 15.9244 12.5062 15.9244C13.678 15.9244 14.8018 15.4589 15.6304 14.6304C16.4589 13.8018 16.9244 12.678 16.9244 11.5063C16.9244 10.3345 16.4589 9.21072 15.6304 8.38215C14.8018 7.55359 13.678 7.0881 12.5062 7.0881C11.926 7.0881 11.3515 7.20238 10.8155 7.42442C10.2794 7.64645 9.79239 7.97189 9.38213 8.38215C8.97187 8.79242 8.64643 9.27947 8.42439 9.81551C8.20236 10.3515 8.08808 10.9261 8.08808 11.5063C8.08808 12.0865 8.20236 12.661 8.42439 13.197C8.64643 13.7331 8.97187 14.2201 9.38213 14.6304C9.79239 15.0406 10.2794 15.3661 10.8155 15.5881ZM9.37229 8.37231C10.2035 7.54113 11.3308 7.07418 12.5062 7.07418C13.6817 7.07418 14.809 7.54113 15.6402 8.37231C16.4714 9.20349 16.9383 10.3308 16.9383 11.5063C16.9383 12.6817 16.4714 13.809 15.6402 14.6402C14.809 15.4714 13.6817 15.9383 12.5062 15.9383C11.3308 15.9383 10.2035 15.4714 9.37229 14.6402C8.54111 13.809 8.07416 12.6817 8.07416 11.5063C8.07416 10.3308 8.54111 9.20349 9.37229 8.37231ZM19.434 6.04229C19.434 6.37873 19.3003 6.70139 19.0625 6.93929C18.8246 7.17719 18.5019 7.31084 18.1655 7.31084C17.829 7.31084 17.5064 7.17719 17.2685 6.93929C17.0306 6.70139 16.8969 6.37873 16.8969 6.04229C16.8969 5.70585 17.0306 5.38319 17.2685 5.1453C17.5064 4.9074 17.829 4.77375 18.1655 4.77375C18.5019 4.77375 18.8246 4.9074 19.0625 5.1453C19.3003 5.38319 19.434 5.70585 19.434 6.04229Z"
              stroke="currentColor" stroke-linejoin="round"/>
    </symbol>

    <symbol id="js" viewBox="0 0 120 120" fill="none" clip-path="url(#clip1_66)">
        <path d="M7.5 7.5L112.5 7.5L112.5 112.5L7.5 112.5L7.5 7.5Z" fill="#F5DE19" fill-opacity="1.000000" fill-rule="nonzero"/>
        <path d="M78.03 89.53C78.92 91.34 80.31 92.87 82.04 93.93C83.76 94.99 85.75 95.55 87.78 95.53C91.87 95.53 94.48 93.48 94.48 90.65C94.48 87.28 91.8 86.07 87.3 84.1L84.83 83.04C77.7 80.01 72.98 76.21 72.98 68.18C72.98 60.78 78.6 55.14 87.43 55.14C90.28 54.94 93.14 55.58 95.63 56.98C98.13 58.39 100.15 60.49 101.46 63.04L93.75 67.98C93.24 66.71 92.37 65.63 91.24 64.87C90.11 64.12 88.77 63.72 87.41 63.75C86.82 63.69 86.22 63.75 85.65 63.94C85.08 64.12 84.56 64.42 84.12 64.82C83.67 65.22 83.32 65.7 83.07 66.25C82.83 66.79 82.7 67.38 82.69 67.98C82.69 70.93 84.52 72.13 88.76 73.98L91.23 75.03C99.61 78.63 104.35 82.29 104.35 90.53C104.35 99.42 97.37 104.28 88 104.28C84.35 104.52 80.71 103.69 77.52 101.9C74.33 100.11 71.72 97.43 70.02 94.19L78.03 89.53ZM43.17 90.38C44.72 93.13 46.13 95.46 49.52 95.46C52.76 95.46 54.81 94.19 54.81 89.26L54.81 55.71L64.68 55.71L64.68 89.39C64.68 99.6 58.68 104.25 49.94 104.25C46.85 104.42 43.79 103.65 41.15 102.05C38.5 100.44 36.41 98.07 35.14 95.25L43.17 90.38Z" fill="#000000" fill-opacity="1.000000" fill-rule="nonzero"/>
    </symbol>

    <symbol id="linkChain" viewBox="0 0 20 20">
        <rect id="akar-icons:link-chain" width="20.000000" height="20.000000" fill="#FFFFFF" fill-opacity="0"/>
        <g clip-path="url(#clip1_141)">
            <path id="Vector" d="M11.28 8.71C10.6 8.03 9.67 7.64 8.71 7.64C7.74 7.64 6.82 8.03 6.14 8.71L3.56 11.28C2.88 11.96 2.49 12.89 2.49 13.86C2.49 14.82 2.88 15.75 3.56 16.43C4.24 17.11 5.17 17.5 6.13 17.5C7.1 17.5 8.03 17.11 8.71 16.43L10 15.14" stroke="#FCFCFC" stroke-opacity="1.000000" stroke-width="1.666667" stroke-linejoin="round" stroke-linecap="round"/>
            <path id="Vector" d="M8.71 11.28C9.39 11.96 10.32 12.35 11.28 12.35C12.25 12.35 13.17 11.96 13.86 11.28L16.43 8.71C17.11 8.03 17.5 7.1 17.5 6.13C17.5 5.17 17.11 4.24 16.43 3.56C15.75 2.88 14.82 2.49 13.86 2.49C12.89 2.49 11.96 2.88 11.28 3.56L10 4.85" stroke="#FCFCFC" stroke-opacity="1.000000" stroke-width="1.666667" stroke-linejoin="round" stroke-linecap="round"/>
        </g>
    </symbol>

    <symbol id="linkedin" viewBox="0 0 22 22">
        <path d="M-0.96 0.95C-0.96 0.44 -0.76 -0.04 -0.4 -0.4C-0.04 -0.76 0.44 -0.96 0.95 -0.96L20.04 -0.96C20.29 -0.96 20.54 -0.91 20.77 -0.82C21 -0.72 21.21 -0.58 21.39 -0.4C21.57 -0.23 21.71 -0.01 21.81 0.22C21.9 0.45 21.95 0.7 21.95 0.95L21.95 20.04C21.95 20.29 21.9 20.54 21.81 20.77C21.71 21 21.57 21.21 21.39 21.39C21.22 21.57 21 21.71 20.77 21.81C20.54 21.9 20.29 21.95 20.04 21.95L0.95 21.95C0.7 21.95 0.45 21.9 0.22 21.81C-0.01 21.71 -0.23 21.57 -0.4 21.39C-0.58 21.21 -0.72 21 -0.82 20.77C-0.91 20.54 -0.96 20.29 -0.96 20.04L-0.96 0.95ZM8.11 7.77L11.21 7.77L11.21 9.33C11.66 8.44 12.8 7.63 14.53 7.63C17.83 7.63 18.61 9.41 18.61 12.69L18.61 18.75L15.27 18.75L15.27 13.43C15.27 11.57 14.82 10.52 13.68 10.52C12.11 10.52 11.45 11.65 11.45 13.43L11.45 18.75L8.11 18.75L8.11 7.77ZM2.38 18.61L5.72 18.61L5.72 7.63L2.38 7.63L2.38 18.61L2.38 18.61ZM6.2 4.05C6.2 4.34 6.15 4.62 6.05 4.89C5.94 5.15 5.79 5.39 5.59 5.6C5.39 5.8 5.15 5.97 4.88 6.08C4.62 6.19 4.34 6.25 4.05 6.25C3.76 6.25 3.48 6.19 3.22 6.08C2.95 5.97 2.71 5.8 2.51 5.6C2.31 5.39 2.16 5.15 2.05 4.89C1.95 4.62 1.89 4.34 1.9 4.05C1.91 3.49 2.15 2.95 2.55 2.56C2.95 2.17 3.49 1.95 4.05 1.95C4.61 1.95 5.15 2.17 5.55 2.56C5.95 2.95 6.19 3.49 6.2 4.05Z"
              fill="currentColor"  fill-rule="evenodd"/>
    </symbol>

    <symbol id="materialUi" viewBox="0 -26 256 256">
        <polygon fill="#00B0FF" points="0 110.848 0 0 96 55.424 96 92.3733333 32 55.424 32 129.322667">

        </polygon>
        <polygon fill="#0081CB"
                 points="96 55.424 192 0 192 110.848 128 147.797333 96 129.322667 160 92.3733333 160 55.424 96 92.3733333">

        </polygon>
        <polygon fill="#00B0FF" points="96 129.322667 96 166.272 160 203.221333 160 166.272">

        </polygon>
        <path d="M160,203.221333 L256,147.797333 L256,73.8986667 L224,92.3733333 L224,129.322667 L160,166.272 L160,203.221333 Z M224,55.424 L224,18.4746667 L256,5.68434189e-14 L256,36.9493333 L224,55.424 Z"
              fill="#0081CB">

        </path>
    </symbol>

    <symbol id="npm" viewBox="0 0 32 32">
        <path d="M0 10V20H9V22H16V20H32V10H0Z" fill="#CB3837"/>
        <path d="M5.46205 12H2V18H5.46205V13.6111H7.22344V18H8.98482V12H5.46205ZM10.7462 12V20H14.269V18H17.731V12H10.7462ZM15.9696 16.3889H14.269V13.6111H15.9696V16.3889ZM22.9545 12H19.4924V18H22.9545V13.6111H24.7158V18H26.4772V13.6111H28.2386V18H30V12H22.9545Z" fill="white"/>

    </symbol>

    <symbol id="react" viewBox="0 0 113 101" clip-path="url(#clip1_53)">
        <path d="M92.9 32.7C91.7 32.28 90.49 31.9 89.26 31.55C89.47 30.71 89.66 29.87 89.83 29.06C92.58 15.64 90.78 4.84 84.63 1.28C78.74 -2.13 69.1 1.42 59.36 9.93C58.4 10.77 57.46 11.63 56.55 12.52C55.93 11.93 55.31 11.35 54.68 10.78C44.47 1.69 34.24 -2.14 28.1 1.43C22.21 4.85 20.47 15.01 22.95 27.72C23.2 28.98 23.47 30.23 23.78 31.48C22.34 31.89 20.94 32.33 19.6 32.8C7.64 36.98 0 43.54 0 50.35C0 57.38 8.2 64.43 20.66 68.7C21.67 69.04 22.69 69.36 23.72 69.66C23.38 71 23.09 72.35 22.83 73.71C20.47 86.2 22.31 96.12 28.18 99.52C34.25 103.03 44.43 99.42 54.35 90.72C55.15 90.01 55.94 89.29 56.7 88.54C57.7 89.5 58.71 90.43 59.76 91.34C69.36 99.63 78.85 102.98 84.71 99.57C90.77 96.05 92.74 85.39 90.19 72.43C89.98 71.42 89.76 70.4 89.51 69.4C90.22 69.19 90.92 68.97 91.61 68.74C104.56 64.43 112.99 57.47 112.99 50.35C112.99 43.52 105.1 36.91 92.9 32.7ZM90.09 64.14C89.47 64.35 88.84 64.55 88.19 64.74C86.76 60.19 84.83 55.36 82.47 50.37C84.73 45.5 86.58 40.73 87.97 36.22C89.13 36.55 90.25 36.9 91.33 37.28C101.79 40.89 108.16 46.23 108.16 50.35C108.16 54.73 101.28 60.42 90.09 64.14ZM85.45 73.37C86.58 79.1 86.74 84.29 85.99 88.34C85.32 91.98 83.97 94.41 82.29 95.38C78.73 97.45 71.12 94.76 62.91 87.67C61.94 86.83 60.99 85.96 60.06 85.07C63.25 81.57 66.43 77.51 69.54 73C75 72.51 80.16 71.71 84.84 70.63C85.06 71.54 85.27 72.45 85.45 73.37ZM38.52 95.02C35.04 96.25 32.27 96.29 30.6 95.32C27.03 93.26 25.55 85.29 27.57 74.61C27.81 73.35 28.09 72.09 28.4 70.85C33.02 71.87 38.15 72.61 43.62 73.06C46.75 77.47 50.02 81.53 53.32 85.08C52.62 85.77 51.9 86.43 51.17 87.07C46.79 90.92 42.39 93.65 38.52 95.02ZM22.22 64.12C16.71 62.23 12.16 59.77 9.04 57.09C6.24 54.68 4.83 52.29 4.83 50.35C4.83 46.22 10.96 40.95 21.19 37.37C22.43 36.94 23.73 36.53 25.08 36.14C26.49 40.76 28.35 45.59 30.59 50.47C28.32 55.42 26.44 60.32 25.01 64.99C24.07 64.72 23.14 64.43 22.22 64.12ZM27.69 26.79C25.56 15.9 26.97 7.68 30.52 5.62C34.3 3.42 42.66 6.56 51.47 14.41C52.05 14.92 52.61 15.44 53.17 15.98C49.88 19.52 46.64 23.54 43.54 27.93C38.23 28.43 33.14 29.22 28.46 30.28C28.17 29.13 27.92 27.96 27.69 26.79L27.69 26.79ZM76.43 38.87C75.32 36.95 74.17 35.06 72.99 33.2C76.59 33.66 80.05 34.26 83.29 35C82.32 38.14 81.1 41.41 79.68 44.77C78.63 42.78 77.55 40.81 76.43 38.87ZM56.55 19.44C58.78 21.86 61.01 24.56 63.2 27.5C58.75 27.28 54.29 27.28 49.84 27.49C52.04 24.59 54.29 21.89 56.55 19.44ZM36.55 38.9C35.44 40.83 34.37 42.79 33.36 44.77C31.95 41.42 30.75 38.13 29.77 34.95C32.99 34.23 36.43 33.64 40.01 33.19C38.81 35.07 37.66 36.97 36.55 38.9L36.55 38.9ZM40.11 67.85C36.41 67.44 32.92 66.88 29.7 66.17C30.7 62.94 31.93 59.58 33.36 56.16C34.38 58.14 35.45 60.1 36.56 62.03C37.71 64.01 38.9 65.96 40.11 67.85ZM56.68 81.6C54.39 79.12 52.11 76.38 49.88 73.43C52.05 73.52 54.25 73.56 56.5 73.56C58.8 73.56 61.07 73.51 63.32 73.41C61.12 76.41 58.89 79.15 56.68 81.6ZM79.72 55.99C81.23 59.44 82.5 62.78 83.52 65.96C80.24 66.71 76.7 67.32 72.98 67.77C74.17 65.87 75.33 63.94 76.44 61.99C77.58 60.02 78.67 58.01 79.72 55.99ZM72.26 59.57C70.55 62.56 68.74 65.49 66.84 68.35C63.4 68.6 59.95 68.72 56.5 68.72C52.98 68.72 49.56 68.61 46.27 68.39C44.31 65.53 42.47 62.6 40.74 59.6L40.74 59.6C39.02 56.62 37.41 53.57 35.92 50.46C37.41 47.36 39.01 44.31 40.73 41.32L40.73 41.32C42.44 38.34 44.27 35.42 46.21 32.57C49.57 32.31 53.01 32.18 56.49 32.18L56.5 32.18C59.99 32.18 63.44 32.31 66.8 32.57C68.72 35.41 70.54 38.32 72.25 41.3C73.97 44.28 75.59 47.31 77.12 50.39C75.61 53.51 73.99 56.57 72.26 59.57ZM82.22 5.48C86 7.67 87.48 16.5 85.1 28.08C84.95 28.82 84.78 29.57 84.59 30.33C79.9 29.25 74.81 28.44 69.48 27.94C66.38 23.5 63.16 19.47 59.93 15.97C60.78 15.16 61.64 14.36 62.53 13.58C70.87 6.3 78.67 3.42 82.22 5.48ZM56.5 40.22C62.07 40.22 66.58 44.76 66.58 50.35C66.58 55.94 62.07 60.47 56.5 60.47C50.92 60.47 46.41 55.94 46.41 50.35C46.41 44.76 50.92 40.22 56.5 40.22Z" fill="#00D8FF" fill-opacity="1.000000" fill-rule="nonzero"/>
    </symbol>

    <symbol id="redux" viewBox="0 0 105 100">
        <path id="Vector" d="M72.69 69.56C76.56 69.16 79.5 65.82 79.37 61.81C79.23 57.81 75.9 54.6 71.89 54.6L71.62 54.6C67.48 54.74 64.28 58.21 64.41 62.35C64.55 64.35 65.35 66.09 66.55 67.29C62.01 76.23 55.07 82.78 44.65 88.25C37.58 91.99 30.24 93.32 22.89 92.39C16.88 91.59 12.21 88.92 9.27 84.51C5 77.97 4.6 70.89 8.21 63.82C10.74 58.74 14.75 55 17.28 53.13C16.75 51.4 15.95 48.46 15.55 46.33C-3.81 60.35 -1.81 79.3 4.07 88.25C8.47 94.93 17.42 99.07 27.3 99.07C29.97 99.07 32.64 98.8 35.31 98.13C52.4 94.79 65.35 84.65 72.69 69.56ZM96.19 53C86.04 41.12 71.09 34.58 54 34.58L51.86 34.58C50.66 32.17 48.13 30.57 45.32 30.57L45.05 30.57C40.92 30.7 37.71 34.18 37.85 38.31C37.98 42.32 41.32 45.52 45.32 45.52L45.59 45.52C48.53 45.39 51.06 43.52 52.13 40.98L54.53 40.98C64.68 40.98 74.29 43.92 82.97 49.66C89.65 54.07 94.45 59.81 97.12 66.75C99.39 72.36 99.26 77.84 96.86 82.51C93.12 89.59 86.84 93.46 78.57 93.46C73.23 93.46 68.15 91.85 65.48 90.65C64.01 91.99 61.34 94.12 59.47 95.46C65.22 98.13 71.09 99.6 76.7 99.6C89.51 99.6 98.99 92.52 102.6 85.45C106.47 77.7 106.2 64.35 96.19 53ZM28.37 71.83C28.5 75.83 31.84 79.04 35.84 79.04L36.11 79.04C40.25 78.9 43.45 75.43 43.32 71.29C43.19 67.29 39.85 64.08 35.84 64.08L35.58 64.08C35.31 64.08 34.91 64.08 34.64 64.22C29.17 55.14 26.9 45.26 27.7 34.58C28.23 26.56 30.9 19.62 35.58 13.88C39.45 8.94 46.92 6.54 52 6.4C66.15 6.14 72.16 23.76 72.56 30.84C74.29 31.24 77.23 32.17 79.23 32.84C77.63 11.21 64.28 0 51.46 0C39.45 0 28.37 8.67 23.96 21.49C17.82 38.58 21.82 55 29.3 67.96C28.63 68.89 28.23 70.36 28.37 71.83L28.37 71.83Z" fill="#764ABC" fill-opacity="1.000000" fill-rule="nonzero"/>
    </symbol>

    <symbol id="restApi" viewBox="0 0 48 48">
        <path id="Vector" fill-rule="evenodd" clip-rule="evenodd"
              d="M36.2548 10.2105L37.0474 11.271C37.2554 11.5508 37.2034 11.952 36.928 12.1635L36.0864 12.8134C36.2394 13.227 36.3373 13.6686 36.3771 14.1195L37.335 14.2533C37.6776 14.2999 37.9164 14.6233 37.8705 14.9716L37.693 16.2933C37.6471 16.6416 37.3289 16.8872 36.9861 16.8375L35.9396 16.6913C35.7528 17.1049 35.5142 17.4843 35.2327 17.8233L35.8202 18.607C36.0282 18.8868 35.9733 19.288 35.6978 19.4995L34.6543 20.3049C34.3789 20.5164 33.9842 20.4604 33.7762 20.1836L33.1365 19.3284C32.7265 19.4839 32.295 19.5834 31.8482 19.6239L31.7166 20.5972C31.6707 20.9455 31.3525 21.1881 31.0097 21.1414L29.7093 20.9611C29.3665 20.9144 29.1279 20.591 29.1738 20.2427L29.3176 19.1792C28.9137 18.9895 28.5372 18.7469 28.2037 18.4639L27.4326 19.0579C27.1572 19.2693 26.7624 19.2165 26.5543 18.9366L25.7617 17.8762C25.5537 17.5963 25.6057 17.1951 25.8811 16.9836L26.7226 16.3337C26.5697 15.917 26.4717 15.4785 26.432 15.0276L25.4741 14.8939C25.1315 14.8472 24.8896 14.5238 24.9386 14.1755L25.1161 12.8538C25.165 12.5056 25.4802 12.263 25.823 12.3096L26.8695 12.4558C27.0561 12.0453 27.2949 11.6628 27.5733 11.3238L26.9889 10.5402C26.7807 10.2634 26.8329 9.86223 27.1081 9.65077L28.1517 8.84533C28.4271 8.63386 28.8219 8.68673 29.03 8.96661L29.6695 9.82179C30.0765 9.66632 30.5109 9.5668 30.9548 9.52637L31.0864 8.55301C31.1323 8.20471 31.4505 7.95904 31.7932 8.00568L33.0937 8.18605C33.4364 8.2327 33.6781 8.55612 33.6292 8.90441L33.4854 9.96796C33.8924 10.1577 34.2657 10.4002 34.6023 10.6863L35.3734 10.0924C35.6488 9.87778 36.0436 9.93064 36.2548 10.2105ZM13.8795 28.8723V23.7412H16.4805C16.9641 23.7412 17.3312 23.7817 17.5853 23.8687C17.8393 23.9528 18.0473 24.1081 18.2004 24.3353C18.3564 24.5653 18.436 24.8421 18.436 25.1686C18.436 25.4516 18.3748 25.7004 18.2554 25.9056C18.136 26.114 17.9709 26.2819 17.7628 26.4094C17.6312 26.4903 17.4476 26.5587 17.215 26.6116C17.4017 26.6769 17.5363 26.7359 17.6188 26.8012C17.6771 26.8448 17.7597 26.9351 17.8669 27.0718C17.9739 27.2087 18.0473 27.3174 18.084 27.3921L18.8429 28.8755H17.0804L16.248 27.3112C16.1409 27.1092 16.0491 26.9755 15.9665 26.9163C15.8532 26.8386 15.7248 26.7982 15.5839 26.7982H15.4462V28.8755H13.8795V28.8723ZM19.3815 37.8068H16.4683L16.0491 39.2H13.4236L16.554 30.7445H19.3693L22.4876 39.2H19.7946L19.3815 37.8068ZM18.8368 35.9751L17.928 32.9337L17.0162 35.9751H18.8368ZM23.0934 30.7445H27.3713C28.3047 30.7445 29.0024 30.9685 29.4644 31.4193C29.9266 31.8702 30.159 32.514 30.159 33.3443C30.159 34.1994 29.9051 34.8681 29.4002 35.3501C28.8952 35.8321 28.1211 36.0716 27.0837 36.0716H25.6731V39.2H23.0934V30.7445ZM25.6731 34.3581H26.3065C26.8053 34.3581 27.1572 34.271 27.3591 34.0937C27.5611 33.9196 27.6621 33.6926 27.6621 33.4219C27.6621 33.1577 27.5733 32.9307 27.3989 32.7472C27.2245 32.5636 26.894 32.4704 26.4105 32.4704H25.6731V34.3581ZM31.1995 30.7445H33.7791V39.2H31.1995V30.7445ZM15.4462 25.8247H16.1042C16.1745 25.8247 16.3123 25.7999 16.5173 25.7533C16.6214 25.7315 16.7071 25.6786 16.7713 25.5915C16.8387 25.5045 16.8692 25.405 16.8692 25.2931C16.8692 25.1282 16.8172 24.9976 16.7132 24.9106C16.6091 24.8203 16.4163 24.7768 16.1318 24.7768H15.4462V25.8247ZM19.1429 23.7412H23.3198V24.8359H20.7096V25.6538H23.1301V26.6987H20.7096V27.7093H23.3964V28.8693H19.1429V23.7412ZM23.7666 27.1745L25.2477 27.0812C25.2783 27.3268 25.3456 27.5103 25.4436 27.6379C25.6057 27.843 25.8352 27.9487 26.1321 27.9487C26.3524 27.9487 26.5267 27.8959 26.6461 27.7902C26.7655 27.6845 26.8266 27.56 26.8266 27.4201C26.8266 27.2864 26.7685 27.1683 26.6554 27.0626C26.5421 26.9567 26.2759 26.8604 25.8567 26.7639C25.1742 26.6084 24.6876 26.4 24.3939 26.142C24.1001 25.8838 23.9533 25.5543 23.9533 25.153C23.9533 24.8888 24.0298 24.6399 24.1797 24.4067C24.3297 24.1735 24.556 23.987 24.859 23.8532C25.162 23.7195 25.5751 23.6542 26.1014 23.6542C26.7472 23.6542 27.2368 23.7754 27.5764 24.021C27.9129 24.2668 28.115 24.6524 28.1793 25.1872L26.7135 25.2775C26.6737 25.0443 26.591 24.8731 26.4686 24.7706C26.3431 24.6648 26.1688 24.6119 25.9515 24.6119C25.771 24.6119 25.6333 24.6524 25.5415 24.7302C25.4497 24.8079 25.4038 24.9044 25.4038 25.0163C25.4038 25.0971 25.4435 25.1686 25.517 25.237C25.5903 25.3023 25.7617 25.3676 26.0372 25.4268C26.7196 25.5759 27.2092 25.7284 27.5029 25.8808C27.7967 26.0331 28.014 26.2229 28.1456 26.4499C28.2802 26.6738 28.3475 26.9287 28.3475 27.2087C28.3475 27.5382 28.2588 27.8399 28.0782 28.1167C27.9007 28.3935 27.6499 28.6049 27.3286 28.748C27.0072 28.8911 26.6034 28.9626 26.1136 28.9626C25.2568 28.9626 24.6602 28.7946 24.3297 28.4588C23.9992 28.1167 23.8125 27.6907 23.7666 27.1745ZM28.5739 23.7412H33.3201V25.01H31.7288V28.8723H30.1683V25.01H28.5739V23.7412ZM23.3229 11.5633C22.7628 11.5197 22.1968 11.526 21.6369 11.582C19.914 11.7499 18.2402 12.3874 16.857 13.4789C15.2565 14.7384 14.0417 16.6229 13.5736 19.1201L13.4266 19.9006L12.6616 20.0375C11.912 20.1712 11.2417 20.3547 10.6542 20.5879C10.0851 20.8118 9.57701 21.0886 9.13333 21.4151C8.77832 21.6763 8.47235 21.9686 8.21229 22.2858C7.40749 23.2654 7.03416 24.4938 7.0434 25.7377C7.05249 27.0003 7.45637 28.2752 8.20304 29.3233C8.4816 29.712 8.80292 30.0697 9.17015 30.3806C9.54348 30.6947 9.96256 30.9559 10.4338 31.1518C10.7002 31.2637 10.9847 31.3572 11.2815 31.4317V33.761C10.6694 33.6489 10.1064 33.4812 9.58014 33.2602C8.88548 32.968 8.27041 32.5916 7.72882 32.1314C7.21464 31.6961 6.76485 31.2017 6.38243 30.6636C5.36331 29.2332 4.81247 27.4854 4.80025 25.7439C4.78803 23.9838 5.32665 22.233 6.48943 20.8149C6.8659 20.3547 7.30958 19.9317 7.81749 19.5585C8.40812 19.1232 9.08445 18.7562 9.84945 18.4546C10.3757 18.2462 10.9388 18.0721 11.5325 17.9321C12.2057 15.2142 13.6408 13.1213 15.486 11.669C17.212 10.31 19.2897 9.51704 21.4287 9.30869C22.5518 9.19984 23.6901 9.2496 24.804 9.46107C24.7794 9.56369 24.7581 9.66632 24.7458 9.77205L24.7428 9.7907C24.7213 9.96796 24.7122 10.1452 24.7213 10.3256C24.4857 10.4189 24.2654 10.5464 24.0665 10.7019L24.0574 10.7081C23.7605 10.9351 23.5095 11.2274 23.3229 11.5633ZM39.5138 17.5341C39.6851 17.6927 39.8503 17.8575 40.0126 18.0348C40.3399 18.3924 40.649 18.7967 40.9397 19.2476C41.9189 20.7776 42.4209 22.8207 42.3994 24.8203C42.3779 26.7826 41.8578 28.7356 40.7928 30.1722C40.0981 31.1084 39.2078 31.8733 38.1398 32.4797C37.4083 32.8965 36.5852 33.2416 35.6886 33.5216V31.1114C36.1721 30.928 36.622 30.7227 37.0351 30.4895C37.8399 30.0323 38.4978 29.4756 38.9905 28.8071C39.7555 27.7716 40.1318 26.3068 40.1472 24.8047C40.1655 23.2281 39.786 21.6452 39.0486 20.4946C38.8374 20.1619 38.6049 19.8633 38.3601 19.5959C38.2653 19.4933 38.1703 19.3968 38.0724 19.3036C38.0878 19.1481 38.0939 18.9895 38.0846 18.8309C38.3203 18.7376 38.5405 18.6101 38.7395 18.4546L38.7488 18.4484C39.0638 18.2027 39.327 17.8917 39.5138 17.5341ZM31.7534 11.98C33.1641 12.1759 34.1493 13.4976 33.9566 14.9312C33.7638 16.3648 32.4633 17.3693 31.0527 17.1733C29.6419 16.9774 28.6535 15.6558 28.8493 14.2222C29.0452 12.7885 30.3427 11.7841 31.7534 11.98Z"
              fill="#F5DE19"/>
    </symbol>

    <symbol id="styledComponents" viewBox="0 0 120 119">
        <path id="Vector"
              d="M68.76 117.27C68.94 116.87 69.4 116.58 69.73 116.24C74.76 110.96 79.84 105.73 84.81 100.39C86.36 98.95 87.56 97.18 88.32 95.2C89.07 93.22 89.36 91.1 89.15 88.99C89 88.09 88.79 87.2 88.54 86.32C87.18 87.6 85.92 88.77 84.66 89.95C82.68 91.79 80.72 93.63 78.73 95.44C77.56 96.64 76.05 97.45 74.41 97.77C72.77 98.09 71.07 97.9 69.53 97.24C67.97 96.67 66.62 95.65 65.64 94.32C64.66 92.98 64.09 91.39 64 89.74C63.96 89.52 63.89 89.32 63.82 89.11C62.3 90.4 60.86 91.58 59.42 92.8L29.58 118.08C29.38 118.26 29.15 118.47 28.96 118.65L68.74 118.65L68.68 118.61C68.47 118.46 68.58 117.67 68.76 117.27Z"
              fill="#FFCEBF" fill-opacity="1.000000" fill-rule="nonzero"/>
        <path id="Vector"
              d="M27.14 117.27C27.49 116.81 27.92 116.41 28.4 116.09L69.69 81.06C72.51 78.67 75.32 76.26 78.11 73.85C78.45 73.61 78.72 73.27 78.89 72.89C79.55 69.98 79.65 66.97 79.17 64.02C78.74 64.32 78.51 64.45 78.31 64.66C74.93 67.69 71.56 70.74 68.17 73.74C67.04 74.88 65.58 75.62 64.01 75.88C62.43 76.13 60.81 75.88 59.39 75.15C57.94 74.47 56.72 73.37 55.9 71.99C55.07 70.61 54.68 69.02 54.76 67.41L54.76 66.02C54.14 66.48 53.69 66.78 53.26 67.12C36.73 80.36 20.21 93.58 3.69 106.79C2.94 107.39 2.05 108.72 1.08 107.43C0.1 106.14 1.59 105.61 2.34 105.01C19.95 90.87 37.57 76.75 55.2 62.65C58.07 60.34 58.26 59.38 56.39 55.73L55.28 56.77C52.22 59.61 49.13 62.41 46.12 65.3C44.89 66.49 43.34 67.31 41.66 67.66C39.99 68.01 38.24 67.88 36.64 67.28C35.03 66.68 33.63 65.64 32.59 64.27C31.55 62.91 30.91 61.28 30.76 59.57C30.19 60 29.7 60.31 29.23 60.68L3.09 80.94C2.64 81.38 2.13 81.75 1.56 82.04C1.14 82.17 0.69 82.15 0.28 81.98L0.28 118.67L27.09 118.67C26.99 118.45 26.94 118.21 26.95 117.96C26.96 117.72 27.02 117.49 27.14 117.27Z"
              fill="#FFCEBF" fill-opacity="1.000000" fill-rule="nonzero"/>
        <path id="Vector"
              d="M99.56 0.82C98.83 3.2 98.12 5.59 97.49 8.01C96.9 9.71 96.97 11.58 97.68 13.23C98.39 14.89 99.7 16.22 101.34 16.96C106.37 19.61 112.04 20.79 117.7 20.39L117.7 1.22C117.64 0.8 117.66 0.37 117.77 -0.04C117.89 -0.27 118.04 -0.48 118.22 -0.68L99.54 -0.68C99.83 -0.34 99.73 0.25 99.56 0.82Z"
              fill="#FF6196" fill-opacity="1.000000" fill-rule="nonzero"/>
        <path id="Vector"
              d="M62.05 41.99C61.96 44.13 61.21 46.19 59.9 47.89C55.24 53.91 49.88 59.37 43.94 64.14C42.98 65.03 41.76 65.59 40.47 65.74C39.17 65.89 37.86 65.63 36.72 65C35.59 64.51 34.63 63.69 33.98 62.64C33.34 61.59 33.03 60.36 33.11 59.13C33.25 57.62 33.87 56.2 34.9 55.08C41.54 48.74 48.74 43.01 56.4 37.96C56.9 37.57 57.52 37.34 58.16 37.32C58.79 37.29 59.42 37.47 59.96 37.82C60.66 38.25 61.22 38.87 61.59 39.61C61.96 40.35 62.12 41.17 62.05 41.99Z"
              fill="#FF87AF" fill-opacity="1.000000" fill-rule="nonzero"/>
        <path id="Vector"
              d="M56.91 67.97C56.81 67.02 56.93 66.06 57.26 65.17C57.6 64.28 58.13 63.47 58.83 62.82C65.33 56.82 72.31 51.36 79.7 46.48C79.92 46.34 80.12 46.2 80.37 46.05C81.01 45.59 81.8 45.35 82.59 45.38C83.39 45.41 84.15 45.7 84.76 46.2C85.35 46.71 85.77 47.38 85.96 48.13C86.14 48.89 86.09 49.68 85.8 50.4C84.86 53.51 83.14 56.33 80.79 58.58C76.03 63.27 71.17 67.87 66.22 72.37C65.48 73.14 64.5 73.64 63.44 73.79C62.38 73.94 61.31 73.73 60.38 73.2C59.4 72.69 58.57 71.94 57.97 71.03C57.36 70.11 57 69.06 56.91 67.97Z"
              fill="#FF87AF" fill-opacity="1.000000" fill-rule="nonzero"/>
        <path id="Vector"
              d="M87.83 70.8C86.63 72.08 85.4 73.31 84.24 74.62C83.9 75.13 83.61 75.68 83.39 76.25C84.02 76.44 84.76 76.94 85.28 76.76C87.89 75.88 90.45 74.83 93.32 73.72C92.7 75.16 92.23 76.49 91.56 77.7C88.83 82.3 85.4 86.45 81.4 90.01C79.88 91.48 78.3 92.88 76.67 94.22C75.8 94.93 74.76 95.41 73.65 95.6C72.53 95.78 71.39 95.67 70.34 95.26C69.29 94.86 68.36 94.19 67.65 93.31C66.95 92.44 66.49 91.39 66.32 90.27C66.25 89.65 66.3 89.03 66.48 88.43C66.65 87.83 66.95 87.27 67.34 86.79C73.17 80.46 79.83 74.95 87.15 70.41C87.24 70.37 87.33 70.35 87.43 70.35L87.83 70.8Z"
              fill="#FF87AF" fill-opacity="1.000000" fill-rule="nonzero"/>
        <path id="Vector"
              d="M97.67 53.73L105 21.16L110.14 22.37L107.49 30.43C105.01 37.92 102.51 45.42 100.09 52.93C99.62 54.32 99 54.58 97.67 53.73Z"
              fill="#FF6196" fill-opacity="1.000000" fill-rule="nonzero"/>
        <path id="Vector"
              d="M89.38 72.88C90.16 69.92 90.93 67.18 91.58 64.42C92.21 61.73 93.42 59.22 95.12 57.04C96.16 55.67 97.33 56.22 98.53 56.51C99.63 56.78 99.91 57.59 99.96 58.66C100.13 61.6 99.24 64.5 97.44 66.83C95.3 69.48 92.53 71.56 89.38 72.88Z"
              fill="#FF6196" fill-opacity="1.000000" fill-rule="nonzero"/>
        <path id="Vector"
              d="M119.94 2.83C120 1.88 119.98 0.92 119.87 -0.03C119.78 -0.29 119.6 -0.52 119.37 -0.68C119.18 -0.83 118.96 -0.94 118.72 -1C118.58 -1.02 118.39 -0.88 118.2 -0.68C118.03 -0.49 117.87 -0.27 117.75 -0.04C117.65 0.37 117.62 0.8 117.69 1.22L117.69 20.38C112.02 20.78 106.35 19.6 101.32 16.95C99.68 16.21 98.37 14.88 97.66 13.22C96.95 11.57 96.88 9.7 97.47 8C98.11 5.59 98.81 3.19 99.54 0.81C99.71 0.24 99.81 -0.35 99.54 -0.68C99.39 -0.85 99.18 -0.94 98.96 -0.96C98.68 -0.95 98.41 -0.86 98.18 -0.68C97.86 -0.49 97.61 -0.21 97.45 0.13C96.59 2.7 95.84 5.3 95.18 7.92C94.94 8.95 94.87 10.02 94.99 11.08C95.15 12.99 95.86 14.81 97.03 16.33C98.21 17.85 99.79 19 101.59 19.65C102.4 19.99 102.88 20.32 102.65 21.39C102.34 22.74 102.04 24.1 101.73 25.46C99.63 34.66 97.54 43.87 95.46 53.08C95.4 53.49 95.22 53.88 94.94 54.18C93.57 55.27 92.42 56.61 91.55 58.13C90.44 60.13 89.68 62.3 89.28 64.55C89.21 65.27 88.95 65.96 88.53 66.55C88.11 67.14 87.55 67.61 86.89 67.92C85.1 68.82 83.46 69.99 81.48 71.21C81.61 68.82 81.59 66.43 81.4 64.05C81.25 63.32 81.28 62.56 81.5 61.84C81.71 61.12 82.09 60.47 82.62 59.93C85.23 57.35 87.1 54.1 88.01 50.53C88.28 49.71 88.36 48.83 88.23 47.97C88.1 47.11 87.77 46.29 87.27 45.58C86.76 44.87 86.1 44.29 85.33 43.89C84.56 43.48 83.7 43.26 82.83 43.25C81.42 43.23 80.04 43.63 78.85 44.38C74.76 47.17 70.75 50.07 66.8 53.06C64.46 54.83 62.25 56.78 59.98 58.63C59.88 58.53 59.8 58.41 59.73 58.28C59.68 57.97 59.6 57.66 59.47 57.37C57.58 54.44 58.89 52.31 60.95 50.12C63.1 47.87 64.29 44.87 64.26 41.76C64.33 40.17 63.83 38.61 62.86 37.36C62.34 36.72 61.7 36.2 60.98 35.8C59.96 35.24 58.79 35.01 57.62 35.13C56.46 35.26 55.37 35.73 54.48 36.5L53.29 37.36C50.56 39.31 47.79 41.21 45.17 43.3C41.33 46.37 37.58 49.53 33.91 52.79C32.2 54.3 30.95 56.37 29.17 57.78C19.9 65.1 10.52 72.29 1.19 79.53C0.87 79.72 0.57 79.95 0.31 80.22C0.28 80.26 0.26 80.3 0.24 80.34C0.04 80.8 -0.12 81.56 0.11 81.84C0.16 81.9 0.23 81.95 0.31 81.98C0.72 82.15 1.17 82.17 1.59 82.04C2.15 81.75 2.67 81.38 3.12 80.94L29.26 60.68C29.73 60.31 30.22 59.98 30.79 59.57C30.94 61.28 31.58 62.91 32.62 64.27C33.66 65.63 35.06 66.68 36.67 67.27C38.27 67.87 40.02 68.01 41.69 67.66C43.37 67.31 44.92 66.49 46.15 65.3C49.15 62.41 52.25 59.61 55.31 56.77L56.42 55.72C58.29 59.38 58.1 60.34 55.23 62.64C37.58 76.76 19.95 90.88 2.34 105.01C1.59 105.61 0.1 106.15 1.08 107.43C2.05 108.71 2.94 107.39 3.69 106.79C20.22 93.59 36.74 80.37 53.24 67.14C53.67 66.8 54.12 66.49 54.74 66.04L54.74 67.43C54.66 69.03 55.05 70.62 55.88 72C56.7 73.38 57.92 74.48 59.37 75.17C60.8 75.89 62.41 76.15 63.99 75.89C65.57 75.64 67.02 74.89 68.15 73.76C71.55 70.76 74.91 67.7 78.29 64.67C78.51 64.48 78.75 64.34 79.15 64.04C79.63 66.98 79.54 69.99 78.87 72.9C78.7 73.29 78.43 73.62 78.09 73.86C75.3 76.28 72.49 78.68 69.68 81.07L28.4 116.11C27.92 116.43 27.49 116.83 27.14 117.29C27.03 117.5 26.96 117.74 26.95 117.97C26.94 118.21 26.99 118.45 27.09 118.67C27.28 118.81 27.5 118.91 27.74 118.96C27.98 119.01 28.22 119 28.46 118.94C28.64 118.88 28.81 118.79 28.96 118.66C29.17 118.49 29.38 118.27 29.58 118.09L59.41 92.81C60.85 91.59 62.3 90.39 63.81 89.13C63.89 89.33 63.95 89.54 64 89.75C64.08 91.41 64.65 93 65.63 94.33C66.62 95.66 67.97 96.68 69.52 97.25C71.06 97.92 72.76 98.1 74.4 97.78C76.05 97.46 77.56 96.65 78.73 95.45C80.72 93.64 82.68 91.8 84.65 89.97C85.94 88.79 87.18 87.6 88.53 86.33C88.78 87.21 88.99 88.1 89.15 89.01C89.34 91.1 89.05 93.22 88.3 95.19C87.55 97.16 86.35 98.93 84.8 100.36C79.83 105.71 74.76 110.94 69.72 116.21C69.39 116.56 68.94 116.84 68.76 117.25C68.58 117.65 68.46 118.45 68.67 118.62L68.74 118.66C69.18 118.88 69.69 118.95 70.18 118.88C70.32 118.85 70.44 118.77 70.53 118.66C70.65 118.54 70.77 118.38 70.88 118.27C74.96 114.05 79.06 109.85 83.11 105.61C84.75 103.95 86.28 102.2 87.71 100.37C89.58 98.3 90.82 95.74 91.28 93C91.74 90.25 91.41 87.43 90.33 84.87C90.21 84.3 90.33 83.7 90.65 83.22C90.92 82.74 91.23 82.27 91.55 81.81C92.56 80.49 93.41 79.05 94.06 77.52C95.33 73.77 97.28 70.28 99.8 67.24C100.96 65.76 101.76 64.04 102.14 62.2C102.51 60.36 102.44 58.46 101.95 56.66C101.77 55.97 101.77 55.25 101.95 54.56C104.11 47.85 106.35 41.15 108.56 34.45L111.51 25.48L112.43 22.71C114.37 22.71 116.21 22.67 118.03 22.71C119.55 22.75 120.01 22.04 120 20.57C119.91 14.65 119.94 8.74 119.94 2.83ZM43.93 64.14C42.97 65.03 41.76 65.59 40.46 65.74C39.17 65.89 37.86 65.63 36.72 65C35.58 64.51 34.63 63.69 33.98 62.64C33.33 61.59 33.03 60.36 33.1 59.13C33.24 57.62 33.87 56.2 34.89 55.08C41.53 48.74 48.73 43.01 56.4 37.96C56.82 37.67 57.29 37.46 57.79 37.36C58.13 37.3 58.48 37.3 58.81 37.36C59.22 37.44 59.6 37.6 59.95 37.82C60.65 38.25 61.22 38.87 61.59 39.61C61.96 40.35 62.11 41.18 62.04 42C61.95 44.14 61.2 46.2 59.9 47.89C55.23 53.92 49.87 59.37 43.93 64.14ZM66.22 72.4C65.47 73.17 64.49 73.67 63.43 73.82C62.38 73.97 61.3 73.76 60.37 73.23C59.39 72.72 58.56 71.97 57.96 71.05C57.35 70.14 56.98 69.08 56.9 67.98C56.8 67.04 56.92 66.08 57.25 65.19C57.59 64.29 58.12 63.49 58.82 62.84C65.32 56.84 72.3 51.38 79.69 46.5C79.91 46.36 80.12 46.22 80.36 46.07C81.01 45.61 81.79 45.37 82.58 45.4C83.38 45.42 84.14 45.71 84.75 46.22C85.35 46.72 85.76 47.4 85.95 48.15C86.14 48.91 86.08 49.7 85.79 50.42C84.86 53.53 83.13 56.35 80.78 58.59C76.06 63.32 71.14 67.86 66.22 72.39L66.22 72.4ZM91.55 77.72C88.81 82.31 85.39 86.46 81.4 90.01C79.88 91.48 78.3 92.88 76.67 94.22C75.8 94.94 74.76 95.41 73.65 95.6C72.53 95.78 71.39 95.67 70.34 95.27C69.29 94.86 68.36 94.19 67.65 93.31C66.95 92.44 66.49 91.39 66.32 90.27C66.25 89.65 66.3 89.03 66.48 88.43C66.65 87.83 66.95 87.27 67.34 86.79C73.17 80.46 79.83 74.95 87.15 70.41C87.24 70.37 87.33 70.35 87.43 70.35L87.86 70.78C86.66 72.07 85.42 73.29 84.27 74.61C83.92 75.12 83.63 75.66 83.41 76.24C84.05 76.42 84.79 76.92 85.3 76.75C87.37 76.05 89.41 75.25 91.59 74.39L93.35 73.7C92.69 75.16 92.22 76.49 91.55 77.71L91.55 77.72ZM97.43 66.86C95.83 68.89 93.83 70.58 91.55 71.8C90.84 72.19 90.12 72.56 89.37 72.9C90.14 69.98 90.9 67.28 91.55 64.55L91.57 64.43C92.21 61.75 93.41 59.23 95.11 57.06C96.15 55.69 97.32 56.24 98.52 56.53C99.62 56.8 99.9 57.61 99.95 58.67C100.12 61.61 99.23 64.51 97.44 66.84L97.43 66.86ZM107.46 30.44C104.98 37.93 102.47 45.43 100.06 52.94C99.6 54.35 98.98 54.61 97.65 53.76L104.01 25.51L104.98 21.17L110.13 22.37L109.09 25.51L107.46 30.44Z"
              fill="#1F2626" fill-opacity="1.000000" fill-rule="nonzero"/>
    </symbol>

    <symbol id="telegram" viewBox="0 0 24 24">
        <path fill-rule="evenodd" clip-rule="evenodd"
              d="M5.78754 14.0196C5.83131 14.0344 5.87549 14.0448 5.91963 14.0512C5.96777 14.1644 6.02996 14.3107 6.10252 14.4818C6.27959 14.8994 6.51818 15.4643 6.76446 16.0535C7.2667 17.2552 7.77332 18.4939 7.88521 18.8485C8.02372 19.2868 8.17013 19.5848 8.32996 19.7883C8.4126 19.8935 8.50819 19.9853 8.62003 20.0549C8.67633 20.0899 8.7358 20.1186 8.79788 20.14C8.80062 20.141 8.80335 20.1419 8.80608 20.1428C9.1261 20.2636 9.41786 20.2133 9.60053 20.1518C9.69827 20.1188 9.77735 20.0791 9.8334 20.0469C9.86198 20.0304 9.88612 20.0151 9.90538 20.0021L9.90992 19.9991L12.7361 18.2366L16.0007 20.7394C16.0488 20.7763 16.1014 20.8073 16.157 20.8316C16.5492 21.0027 16.929 21.0624 17.2862 21.0136C17.6429 20.9649 17.926 20.8151 18.1368 20.6464C18.3432 20.4813 18.4832 20.2963 18.5703 20.1589C18.6148 20.0887 18.6482 20.0266 18.6718 19.9791C18.6836 19.9552 18.6931 19.9346 18.7005 19.9181L18.7099 19.8963L18.7135 19.8877L18.715 19.8841L18.7156 19.8824L18.7163 19.8808C18.7334 19.8379 18.7466 19.7935 18.7556 19.7482L21.7358 4.72274C21.7453 4.67469 21.7501 4.62581 21.7501 4.57682C21.7501 4.13681 21.5843 3.71841 21.1945 3.46452C20.8613 3.24752 20.4901 3.23818 20.2556 3.25598C20.0025 3.27519 19.7688 3.33766 19.612 3.38757C19.5304 3.41355 19.4619 3.43861 19.4126 3.45773C19.3878 3.46734 19.3675 3.47559 19.3523 3.48188L19.341 3.48666L2.62725 10.0432L2.62509 10.044C2.61444 10.0479 2.60076 10.053 2.58451 10.0593C2.55215 10.0719 2.50878 10.0896 2.45813 10.1126C2.35935 10.1574 2.22077 10.2273 2.07856 10.3247C1.85137 10.4803 1.32888 10.9064 1.41686 11.6097C1.48705 12.1708 1.87143 12.5154 2.10562 12.6811C2.23421 12.7721 2.35638 12.8371 2.44535 12.8795C2.48662 12.8991 2.57232 12.9339 2.6095 12.9491L2.61889 12.9529L5.78754 14.0196ZM19.9259 4.86786L19.9236 4.86888C19.9152 4.8725 19.9069 4.87596 19.8984 4.87928L3.1644 11.4438C3.15566 11.4472 3.14686 11.4505 3.138 11.4536L3.12869 11.4571C3.11798 11.4613 3.09996 11.4686 3.07734 11.4788C3.06451 11.4846 3.05112 11.491 3.03747 11.4978C3.05622 11.5084 3.07417 11.5175 3.09012 11.5251C3.10543 11.5324 3.11711 11.5374 3.1235 11.54L6.26613 12.598C6.32365 12.6174 6.37727 12.643 6.42649 12.674L16.8033 6.59948L16.813 6.59374C16.8205 6.58927 16.8305 6.58353 16.8424 6.5768C16.866 6.56345 16.8984 6.54568 16.937 6.52603C17.009 6.48938 17.1243 6.43497 17.2541 6.39485C17.3444 6.36692 17.6109 6.28823 17.899 6.38064C18.0768 6.43767 18.2609 6.56028 18.3807 6.76798C18.4401 6.87117 18.4718 6.97483 18.4872 7.06972C18.528 7.2192 18.5215 7.36681 18.4896 7.49424C18.4208 7.76875 18.228 7.98287 18.0525 8.14665C17.9021 8.28706 15.9567 10.1629 14.0376 12.0147C13.0805 12.9381 12.1333 13.8525 11.4252 14.5359L10.9602 14.9849L16.8321 19.4867C16.9668 19.5349 17.0464 19.5325 17.0832 19.5274C17.1271 19.5214 17.163 19.5045 17.1997 19.4752C17.2407 19.4424 17.2766 19.398 17.3034 19.3557L17.3045 19.354L20.195 4.78102C20.1521 4.79133 20.1087 4.80361 20.0669 4.81691C20.0196 4.83198 19.9805 4.84634 19.9547 4.85637C19.9418 4.86134 19.9326 4.86511 19.9276 4.86719L19.9259 4.86786ZM11.4646 17.2618L10.2931 16.3636L10.0093 18.1693L11.4646 17.2618ZM9.21846 14.5814L10.3834 13.4567C11.0915 12.7732 12.0389 11.8588 12.9961 10.9352L13.9686 9.997L7.44853 13.8138L7.48351 13.8963C7.66121 14.3154 7.90087 14.8827 8.14845 15.4751C8.33358 15.918 8.52717 16.3844 8.70349 16.8162L8.98653 15.0158C9.01381 14.8422 9.09861 14.692 9.21846 14.5814Z"
              fill="currentColor"/>
    </symbol>

    <symbol id="ts"  viewBox="0 0 512 512">
        <rect
                width="512" height="512"
                rx="15%"
                fill="#3178c6"/>
        <path fill="#ffffff"
              d="m233 284h64v-41H118v41h64v183h51zm84 173c8.1 4.2 18 7.3 29 9.4s23 3.1 35 3.1c12 0 23-1.1 34-3.4c11-2.3 20-6.1 28-11c8.1-5.3 15-12 19-21s7.1-19 7.1-32c0-9.1-1.4-17-4.1-24s-6.6-13-12-18c-5.1-5.3-11-10-18-14s-15-8.2-24-12c-6.6-2.7-12-5.3-18-7.9c-5.2-2.6-9.7-5.2-13-7.8c-3.7-2.7-6.5-5.5-8.5-8.4c-2-3-3-6.3-3-10c0-3.4.89-6.5 2.7-9.3s4.3-5.1 7.5-7.1c3.2-2 7.2-3.5 12-4.6c4.7-1.1 9.9-1.6 16-1.6c4.2 0 8.6.31 13 .94c4.6.63 9.3 1.6 14 2.9c4.7 1.3 9.3 2.9 14 4.9c4.4 2 8.5 4.3 12 6.9v-47c-7.6-2.9-16-5.1-25-6.5s-19-2.1-31-2.1c-12 0-23 1.3-34 3.8s-20 6.5-28 12c-8.1 5.4-14 12-19 21c-4.7 8.4-7 18-7 30c0 15 4.3 28 13 38c8.6 11 22 19 39 27c6.9 2.8 13 5.6 19 8.3s11 5.5 15 8.4c4.3 2.9 7.7 6.1 10 9.5c2.5 3.4 3.8 7.4 3.8 12c0 3.2-.78 6.2-2.3 9s-3.9 5.2-7.1 7.2s-7.1 3.6-12 4.8c-4.7 1.1-10 1.7-17 1.7c-11 0-22-1.9-32-5.7c-11-3.8-21-9.5-28.1-15.44z"/>
    </symbol>

    <symbol id="unitTesting" viewBox="0 0 73 73" stroke="none" stroke-width="1" fill="none" fill-rule="evenodd">
        <g id="unit" transform="translate(13.000000, 13.000000)" fill-rule="nonzero">
            <path d="M46.7402812,46.7402812 C45.1089375,48.39975 42.43725,48.39975 40.7777812,46.7402812 L33.1558125,39.1183125 L33.3245625,33.3245625 L39.1183125,33.1558125 L46.7402812,40.7777812 C48.39975,42.4370625 48.39975,45.1089375 46.7402812,46.7402812 Z"
                  id="Shape" fill="#47568C">

            </path>
            <path d="M46.7402812,46.7402812 C45.1089375,48.39975 42.43725,48.39975 40.7777812,46.7402812 L33.1558125,39.1183125 L33.3245625,33.3245625 L46.7402812,46.7402812 Z"
                  id="Shape" fill="#2C3B73">

            </path>
            <path d="M39.1183125,33.1558125 L33.1558125,39.1183125 L27.0527812,33.0152812 C26.5184062,32.4809062 26.5184062,31.5809062 27.0527812,31.0465312 L31.0464375,27.052875 C31.5808125,26.5185 32.4808125,26.5185 33.0151875,27.052875 L39.1183125,33.1558125 Z"
                  id="Shape" fill="#FDBF00">

            </path>
            <path d="M36.1370625,36.1370625 L33.1558125,39.1183125 L27.0527812,33.0152812 C26.5184062,32.4809062 26.5184062,31.5809062 27.0527812,31.0465312 L29.04975,29.0495625 L36.1370625,36.1370625 Z"
                  id="Shape" fill="#FF9100">

            </path>
            <path d="M31.18725,5.3683125 C24.0434062,-1.8035625 12.51225,-1.77534375 5.3683125,5.3683125 C-1.8035625,12.5121563 -1.77534375,24.0433125 5.3683125,31.1870625 C12.5121562,38.3590313 24.0433125,38.3309063 31.18725,31.1870625 C38.3590312,24.0434063 38.3309062,12.5121563 31.18725,5.3683125 Z"
                  id="Shape" fill="#47568C">

            </path>
            <path d="M31.18725,31.1870625 C24.0434062,38.3309063 12.51225,38.3590313 5.3683125,31.1870625 C-1.77534375,24.0434063 -1.8035625,12.5121563 5.3683125,5.3683125 L31.18725,31.1870625 Z"
                  id="Shape" fill="#2C3B73">

            </path>
            <path d="M29.2184062,29.2184062 C23.1714375,35.2651875 13.3840312,35.2651875 7.3370625,29.2184062 C1.29028125,23.1714375 1.29028125,13.3840312 7.3370625,7.3370625 C13.3840312,1.29009375 23.1714375,1.29009375 29.2184062,7.3370625 C35.2651875,13.3840312 35.2651875,23.1715312 29.2184062,29.2184062 Z"
                  id="Shape" fill="#EDF5FF">

            </path>
            <path d="M29.2184062,29.2184062 C23.1714375,35.2651875 13.3840312,35.2651875 7.3370625,29.2184062 C1.29028125,23.1714375 1.29028125,13.3840312 7.3370625,7.3370625 L29.2184062,29.2184062 Z"
                  id="Shape" fill="#D7E9FF">

            </path>
            <path d="M28.1215313,14.3120625 L28.1215313,9.84028125 C28.1215313,9.0526875 27.502875,8.43403125 26.7152813,8.43403125 L21.0902813,8.43403125 C20.3026875,8.43403125 19.6840313,9.0526875 19.6840313,9.84028125 C19.6840313,10.6276875 19.065375,11.2465313 18.2777813,11.2465313 C17.4901875,11.2465313 16.8715313,10.6276875 16.8715313,9.84028125 C16.8715313,9.0526875 16.252875,8.43403125 15.4652813,8.43403125 L9.84028125,8.43403125 C9.44653125,8.43403125 9.10903125,8.60278125 8.82778125,8.82778125 C8.6026875,9.1089375 8.43403125,9.4464375 8.43403125,9.84028125 L8.43403125,14.3120625 C6.8026875,14.8745625 5.62153125,16.4495625 5.62153125,18.2777813 C5.62153125,20.1058125 6.8026875,21.6808125 8.43403125,22.2433125 L8.43403125,26.7152813 C8.43403125,27.5026875 9.0526875,28.1215313 9.84028125,28.1215313 L15.4652813,28.1215313 C16.252875,28.1215313 16.8715313,27.5026875 16.8715313,26.7152813 C16.8715313,25.9276875 17.4901875,25.3090313 18.2777813,25.3090313 C19.065375,25.3090313 19.6840313,25.9276875 19.6840313,26.7152813 C19.6840313,27.5026875 20.3026875,28.1215313 21.0902813,28.1215313 L26.7152813,28.1215313 C27.1090313,28.1215313 27.4465313,27.9527813 27.7277813,27.7277813 C27.952875,27.446625 28.1215313,27.109125 28.1215313,26.7152813 L28.1215313,22.2433125 C29.752875,21.6808125 30.9340313,20.1058125 30.9340313,18.2777813 C30.9340313,16.4495625 29.7527813,14.8745625 28.1215313,14.3120625 Z"
                  id="Shape" fill="#979FEF">

            </path>
            <path d="M8.82778125,8.82778125 L27.7276875,27.7276875 C27.4465312,27.9527813 27.1090312,28.1214375 26.7151875,28.1214375 L21.0901875,28.1214375 C20.3025937,28.1214375 19.6839375,27.5025938 19.6839375,26.7151875 C19.6839375,25.9275938 19.0652812,25.3089375 18.2776875,25.3089375 C17.4900937,25.3089375 16.8714375,25.9275938 16.8714375,26.7151875 C16.8714375,27.5025938 16.2527812,28.1214375 15.4651875,28.1214375 L9.8401875,28.1214375 C9.05259375,28.1214375 8.4339375,27.5025938 8.4339375,26.7151875 L8.4339375,22.2432188 C6.80259375,21.6807188 5.6214375,20.1057188 5.6214375,18.2776875 C5.6214375,16.4494688 6.80259375,14.8744688 8.4339375,14.3119688 L8.4339375,9.8401875 C8.43403125,9.44653125 8.60278125,9.10903125 8.82778125,8.82778125 Z"
                  id="Shape" fill="#737EE6">

            </path>
        </g>
    </symbol>

    <symbol id="websocket" viewBox="0 -31.5 256 256">
        <path d="M192.440223,144.644612 L224.220111,144.644612 L224.220111,68.3393384 L188.415329,32.5345562 L165.943007,55.0068785 L192.440223,81.5040943 L192.440223,144.644612 L192.440223,144.644612 Z M224.303963,160.576482 L178.017688,160.576482 L113.451687,160.576482 L86.954471,134.079266 L98.1906322,122.843105 L120.075991,144.728464 L165.104487,144.728464 L120.746806,100.286931 L132.06682,88.9669178 L176.4245,133.324599 L176.4245,88.2961022 L154.622994,66.4945955 L165.775303,55.3422863 L110.684573,0 L56.3485097,0 L56.3485097,0 L0,0 L31.6960367,31.6960367 L31.6960367,31.7798886 L31.8637406,31.7798886 L97.4359646,31.7798886 L120.662954,55.0068785 L86.7029152,88.9669178 L63.4759253,65.7399279 L63.4759253,47.7117589 L31.6960367,47.7117589 L31.6960367,78.9046839 L86.7029152,133.911562 L64.3144448,156.300033 L100.119227,192.104815 L154.45529,192.104815 L256,192.104815 L256,192.104815 L224.303963,160.576482 L224.303963,160.576482 Z" fill="#231F20">

        </path>
    </symbol>

    <symbol id="yarn" viewBox="0 0 256 256">
        <path d="M128,0 C57.3281853,0 0,57.3281853 0,128 C0,198.671815 57.3281853,256 128,256 C198.671815,256 256,198.671815 256,128 C256,57.3281853 198.671815,0 128,0" fill="#368FB9">

        </path>
        <path d="M203.317375,174.060232 C195.410039,175.938224 191.40695,177.667954 181.621622,184.043243 C166.350579,193.927413 149.646332,198.523552 149.646332,198.523552 C149.646332,198.523552 148.262548,200.599228 144.259459,201.538224 C137.340541,203.218533 111.295753,204.651737 108.923552,204.701158 C102.548263,204.750579 98.6440154,203.07027 97.5567568,200.450965 C94.2455598,192.543629 102.301158,189.08417 102.301158,189.08417 C102.301158,189.08417 100.522008,187.996911 99.4841699,187.008494 C98.5451737,186.069498 97.5567568,184.191506 97.2602317,184.883398 C96.0247104,187.898069 95.3822394,195.261776 92.0710425,198.572973 C87.5243243,203.169112 78.9250965,201.637066 73.834749,198.96834 C68.2501931,196.003089 74.2301158,189.034749 74.2301158,189.034749 C74.2301158,189.034749 71.215444,190.8139 68.7938224,187.156757 C66.619305,183.796139 64.5930502,178.06332 65.1366795,170.996139 C65.7297297,162.940541 74.7243243,155.132046 74.7243243,155.132046 C74.7243243,155.132046 73.1428571,143.221622 78.3320463,131.014672 C83.027027,119.894981 95.6787645,110.949807 95.6787645,110.949807 C95.6787645,110.949807 85.0532819,99.1876448 89.0069498,88.611583 C91.576834,81.6926641 92.6146718,81.7420849 93.4548263,81.4455598 C96.4200772,80.3088803 99.2864865,79.0733591 101.411583,76.7505792 C112.037066,65.2849421 125.578378,67.4594595 125.578378,67.4594595 C125.578378,67.4594595 132.003089,47.9382239 137.933591,51.7436293 C139.762162,52.9297297 146.335135,67.5583012 146.335135,67.5583012 C146.335135,67.5583012 153.352896,63.4563707 154.143629,64.988417 C158.393822,73.2416988 158.888031,89.0069498 157.010039,98.5945946 C153.847104,114.409266 145.939768,122.909653 142.776834,128.247104 C142.035521,129.482625 151.27722,133.386873 157.10888,149.54749 C162.495753,164.324324 157.701931,176.728958 158.542085,178.112741 C158.690347,178.359846 158.739768,178.458687 158.739768,178.458687 C158.739768,178.458687 164.917375,178.952896 177.322008,171.292664 C183.944402,167.190734 191.802317,162.594595 200.74749,162.495753 C209.396139,162.34749 209.840927,172.478764 203.317375,174.060232 L203.317375,174.060232 Z M215.079537,166.795367 C214.189961,159.777606 208.259459,154.934363 200.648649,155.033205 C189.281853,155.181467 179.743629,161.062548 173.417761,164.966795 C170.946718,166.498842 168.821622,167.635521 166.99305,168.475676 C167.388417,162.742857 167.042471,155.230888 164.07722,146.977606 C160.469498,137.093436 155.626255,131.014672 152.166795,127.505792 C156.169884,121.674131 161.655598,113.173745 164.225483,100.027799 C166.449421,88.8092664 165.757529,71.3637066 160.667181,61.5783784 C159.629344,59.6015444 157.899614,58.1683398 155.725097,57.5752896 C154.835521,57.3281853 153.155212,56.8339768 149.844015,57.772973 C144.85251,47.4440154 143.12278,46.3567568 141.788417,45.4671815 C139.020849,43.6880309 135.759073,43.2926641 132.694981,44.4293436 C128.59305,45.9119691 125.08417,49.8656371 121.772973,56.8833977 C121.278764,57.9212355 120.833977,58.9096525 120.43861,59.8980695 C114.162162,60.3428571 104.277992,62.6162162 95.9258687,71.6602317 C94.8880309,72.7969112 92.8617761,73.6370656 90.7366795,74.4277992 L90.7861004,74.4277992 C86.4370656,75.9598456 84.4602317,79.5181467 82.03861,85.9428571 C78.6779923,94.9374517 82.1374517,103.783784 85.5474903,109.516602 C80.9019305,113.667954 74.7243243,120.290347 71.4625483,128.049421 C67.4100386,137.637066 66.965251,147.027027 67.1135135,152.117375 C63.6540541,155.774517 58.3166023,162.644015 57.7235521,170.353668 C56.9328185,181.127413 60.8370656,188.441699 62.5667954,191.110425 C63.0610039,191.901158 63.6046332,192.543629 64.1976834,193.1861 C64,194.520463 63.9505792,195.953668 64.2471042,197.436293 C64.8895753,200.895753 67.0640927,203.712741 70.3752896,205.491892 C76.8988417,208.951351 85.992278,210.433977 93.0100386,206.925097 C95.5305019,209.593822 100.126641,212.163707 108.478764,212.163707 L108.972973,212.163707 C111.098069,212.163707 138.081853,210.730502 145.939768,208.803089 C149.448649,207.962934 151.87027,206.480309 153.451737,205.145946 C158.492664,203.564479 172.429344,198.820077 185.57529,190.319691 C194.866409,184.290347 198.078764,183.005405 204.997683,181.325097 C211.718919,179.694208 215.919691,173.566023 215.079537,166.795367 L215.079537,166.795367 Z" fill="#FFFFFF">

        </path>
    </symbol>

</svg>